<?xml version="1.0" standalone="no"?>
<!DOCTYPE svg PUBLIC "-//W3C//DTD SVG 20010904//EN"
 "http://www.w3.org/TR/2001/REC-SVG-20010904/DTD/svg10.dtd">
<svg version="1.0" xmlns="http://www.w3.org/2000/svg"
 width="1400.000000pt" height="1400.000000pt" viewBox="0 0 1400.000000 1400.000000"
 preserveAspectRatio="xMidYMid meet">

<g transform="translate(0.000000,1400.000000) scale(0.100000,-0.100000)"
fill="#000000" stroke="none">
<path d="M3405 10971 c-188 -54 -324 -188 -382 -376 -17 -58 -18 -192 -18
-3600 0 -3445 1 -3541 19 -3595 55 -161 149 -274 278 -335 148 -71 -158 -65
3730 -63 3396 3 3515 4 3568 22 188 63 316 191 367 369 l23 79 0 3522 c0 3882
5 3582 -62 3710 -41 78 -146 183 -224 224 -128 67 173 62 -3714 61 -3309 0
-3529 -1 -3585 -18z m1970 -1460 c87 -23 184 -65 256 -112 l47 -30 63 41 c186
117 444 158 659 104 265 -67 500 -275 595 -528 55 -147 55 -145 55 -977 l0
-769 -330 0 -330 0 0 743 c0 703 -1 744 -19 783 -43 95 -166 137 -261 88 -34
-17 -77 -63 -89 -97 -8 -19 -11 -271 -11 -773 l0 -744 -335 0 -335 0 0 745 c0
816 3 772 -58 838 -38 40 -118 62 -174 47 -58 -16 -106 -54 -129 -104 -18 -39
-19 -80 -19 -783 l0 -743 -330 0 -330 0 0 778 c0 742 1 781 20 860 68 285 289
525 566 616 154 50 337 57 489 17z m3325 15 c459 -70 830 -404 947 -854 31
-120 42 -319 24 -442 -61 -413 -333 -759 -715 -910 -307 -121 -656 -103 -951
48 -310 159 -521 438 -602 794 -26 115 -23 356 6 476 146 600 695 977 1291
888z m-3331 -2807 c70 -18 219 -84 282 -125 26 -17 28 -17 75 14 27 17 78 44
114 61 211 99 489 100 704 2 250 -113 435 -343 491 -611 13 -60 15 -197 15
-841 l0 -769 -330 0 -330 0 0 745 c0 723 -1 747 -20 784 -68 135 -273 133
-339 -1 -21 -44 -21 -51 -21 -786 l0 -742 -330 0 -330 0 0 718 c0 456 -4 733
-11 762 -20 88 -95 150 -183 150 -82 0 -142 -39 -177 -115 -18 -38 -19 -81
-19 -782 l0 -743 -330 0 -331 0 3 803 c3 795 4 803 26 872 55 177 161 334 293
439 216 171 488 231 748 165z m3386 5 c151 -31 288 -87 410 -169 611 -406 693
-1267 171 -1780 -96 -94 -191 -160 -319 -220 -146 -70 -256 -96 -428 -102
-178 -7 -276 6 -419 53 -187 62 -327 151 -467 297 -158 164 -250 340 -299 569
-22 100 -24 330 -5 428 112 572 615 972 1186 943 55 -2 132 -11 170 -19z"/>
<path d="M8450 8869 c-147 -25 -291 -135 -355 -271 -145 -310 55 -659 399
-694 180 -18 376 89 463 252 79 149 82 309 7 456 -32 63 -123 161 -182 195
-91 54 -229 79 -332 62z"/>
<path d="M8403 6065 c-210 -57 -354 -248 -354 -470 0 -441 548 -653 843 -325
242 270 120 690 -231 794 -66 19 -187 20 -258 1z"/>
</g>
</svg>
