<?xml version="1.0" standalone="no"?>
<!DOCTYPE svg PUBLIC "-//W3C//DTD SVG 20010904//EN"
 "http://www.w3.org/TR/2001/REC-SVG-20010904/DTD/svg10.dtd">
<svg version="1.0" xmlns="http://www.w3.org/2000/svg"
 width="50.000000pt" height="50.000000pt" viewBox="0 0 50.000000 50.000000"
 preserveAspectRatio="xMidYMid meet">

<g transform="translate(0.000000,50.000000) scale(0.100000,-0.100000)"
fill="#000000" stroke="none">
<path d="M215 483 c-48 -11 -51 -14 -25 -28 14 -8 33 -14 44 -15 12 0 16 -5
12 -15 -4 -11 2 -15 25 -15 39 0 72 -17 62 -33 -4 -7 -8 -21 -8 -32 0 -18 -7
-20 -58 -21 -47 -1 -55 1 -46 12 8 10 3 16 -26 29 -21 8 -41 15 -45 15 -4 0
-15 9 -25 20 -25 28 -42 25 -60 -10 -17 -32 -20 -54 -5 -30 8 13 10 12 10 -4
0 -11 8 -29 18 -40 10 -12 24 -40 31 -63 6 -24 16 -43 22 -43 5 0 14 -11 19
-24 8 -21 15 -24 56 -24 51 0 98 21 71 31 -8 3 -18 2 -23 -3 -13 -12 -62 -1
-68 16 -3 9 4 16 22 20 15 4 34 16 43 27 15 18 18 19 38 5 12 -9 31 -14 42
-11 27 7 26 -33 -1 -42 -11 -3 -20 -13 -20 -21 0 -17 41 -19 58 -2 6 6 32 11
57 9 l45 -2 -1 48 c-1 26 -6 56 -11 67 -7 13 -6 21 2 26 19 11 -56 94 -113
126 -29 15 -61 9 -36 -7 11 -7 11 -9 -2 -9 -23 0 -30 11 -18 27 9 10 7 13 -7
13 -11 0 -28 2 -39 4 -11 2 -29 2 -40 -1z m200 -153 c-3 -5 -17 -10 -31 -10
-14 0 -22 4 -19 10 3 6 17 10 31 10 14 0 22 -4 19 -10z m-80 -40 c-3 -5 -11
-10 -16 -10 -6 0 -7 5 -4 10 3 6 11 10 16 10 6 0 7 -4 4 -10z m89 -47 c-6 -9
-17 -19 -25 -21 -11 -4 -12 -2 -1 9 6 7 12 22 12 33 0 16 3 17 12 8 9 -9 10
-17 2 -29z m-273 5 c11 -21 11 -22 -4 -9 -10 7 -17 17 -17 22 0 15 9 10 21
-13z"/>
<path d="M130 451 c0 -15 48 -41 64 -35 23 9 20 19 -9 32 -31 14 -55 15 -55 3z"/>
<path d="M6 299 c-8 -43 -8 -68 4 -109 9 -34 11 -35 52 -33 35 3 39 1 21 -7
-29 -12 -29 -30 0 -31 21 0 21 -1 2 -8 -11 -5 -24 -6 -30 -3 -5 3 1 -7 14 -21
19 -20 28 -24 42 -17 23 13 34 30 18 30 -6 0 -2 8 10 17 21 18 21 18 1 43 -16
22 -26 25 -70 23 -47 -2 -50 -1 -40 17 6 10 14 21 19 24 5 3 12 18 15 32 5 20
1 33 -15 50 -29 31 -35 30 -43 -7z m34 -54 c-7 -9 -15 -13 -18 -10 -3 2 1 11
8 20 7 9 15 13 18 10 3 -2 -1 -11 -8 -20z m51 -162 c13 -16 12 -17 -3 -4 -10
7 -18 15 -18 17 0 8 8 3 21 -13z"/>
<path d="M237 124 c-15 -20 -16 -28 -6 -40 17 -20 2 -31 -22 -16 -17 11 -25
10 -45 -3 -36 -23 -26 -38 37 -54 79 -20 156 3 221 69 27 26 48 52 48 59 0 7
-23 11 -64 11 -59 0 -64 -2 -59 -20 3 -11 9 -20 14 -20 5 0 4 -8 -2 -18 -14
-23 -47 -23 -55 0 -3 9 -14 20 -25 23 -12 4 -18 12 -15 21 9 22 -7 16 -27 -12z
m52 -60 c5 4 12 2 15 -3 4 -5 2 -12 -4 -16 -12 -8 -50 12 -50 27 0 7 5 6 15
-2 8 -6 19 -9 24 -6z"/>
</g>
</svg>
